<?xml version="1.0" encoding="utf-8"?>
<!-- Generator: Adobe Illustrator 25.2.1, SVG Export Plug-In . SVG Version: 6.00 Build 0)  -->
<svg version="1.1" id="Слой_1" xmlns="http://www.w3.org/2000/svg" xmlns:xlink="http://www.w3.org/1999/xlink" x="0px" y="0px"
	 viewBox="0 0 1162.2 1162.2" style="enable-background:new 0 0 1162.2 1162.2;" xml:space="preserve">
<style type="text/css">
	.st0{fill:#3F85A8;}
	.st1{fill:#413F41;}
	.st2{fill:#C2BFC3;}
	.st3{fill:#615C60;}
	.st4{fill:#939093;}
	.st5{fill:#929093;}
	.st6{fill:#928F92;}
	.st7{fill:#929193;}
	.st8{fill:#C2BFC2;}
	.st9{fill:#504B4E;}
	.st10{fill:#918F92;}
	.st11{fill:#C0BDC0;}
	.st12{fill:#949294;}
	.st13{fill:#0C0B0D;}
	.st14{fill:#0B0A0C;}
	.st15{fill:#F8F9FB;}
	.st16{fill:#F8F9FC;}
	.st17{fill:#070608;}
	.st18{fill:#F8F8FA;}
	.st19{fill:#4185A1;}
</style>
<g>
	<path class="st0" d="M582.1,447.16c-30.08,5.13-56.23-5.66-81.49-20.08c-3.61-2.06-7.36-3.91-10.77-6.26
		c-4.33-2.99-5.99-1.52-7.48,3.01c-3.43,10.47-10.04,18.33-20.68,22.14c-10.51,3.77-20.94,2.46-31.27-1
		c-6.5-2.18-12.47-5.5-18.39-8.86c-3.15-1.78-5.67-1.85-8.56,0.59c-13.54,11.45-27.87,10.9-42.45,2.23
		c-4.99-2.97-9.79-6.3-14.42-9.8c-4.74-3.57-9.24-3.79-14.24-0.64c-8.61,5.41-17.82,8.62-28.27,8.04
		c-27.36-1.5-49.82-31.59-42.58-57.34c5.37-19.1,25.28-30.88,45.77-27.17c8.96,1.62,17.24,4.89,24.87,9.81
		c1.61,1.04,2.57,1.76,3.73-0.59c8.49-17.23,23.81-24.76,41.47-28.72c11.33-2.54,22.73-2.65,34.12-0.26
		c0.43,0.09,0.93-0.15,1.41-0.24c-12.5-35.53-4.7-60.56,22.07-71.13c24.21-9.56,55.55-2.2,64.93,24.49
		c6.96-4.33,14.19-7.82,22.39-9.1c24.46-3.81,39.93,13.68,32.67,37.23c-1.17,3.78-2.9,7.39-4.48,11.35
		c5.67-0.93,11.26-2.1,16.92-2.72c11.13-1.21,21.91,0.23,31.94,5.52c16.18,8.53,20.84,24.44,12.07,40.5
		c-0.78,1.42-2.73,2.61-1.7,4.74c-0.46,2.69-3.01,2.83-4.79,3.72c-15,7.45-28.37,17.16-40.48,28.68c-1.32,1.26-2.56,2.6-3.74,4
		c-2.1,2.48-1.85,4.35,0.51,6.81c8.21,8.56,13.47,19.29,20.59,28.66C582.27,445.43,582.35,446.31,582.1,447.16z"/>
	<path class="st1" d="M582.1,447.16c-5.79-8.45-11.55-16.91-17.38-25.33c-1.03-1.49-2.15-3.02-3.54-4.12
		c-6.23-4.91-4.39-6.65,0.08-11.03c14-13.73,29.45-25.52,47.76-33.09c0.27-0.11,0.44-0.46,0.66-0.7
		c15.94-6.83,30.81-15.35,43.55-27.31c1.31-1.23,2.97-2.09,4.47-3.12c3.03-1.77,5.07,0.4,7.1,1.95c4.62,3.52,9.05,7.29,13.93,10.48
		c2.7,1.76,5.34,2.38,8.46,1.31c9.93-3.4,20.23-3.57,30.52-2.84c4.09,0.29,7.36-0.57,10.7-2.79c11.55-7.67,24.67-10.25,38.21-11.4
		c4.71-0.4,7.43,1.58,9.01,5.97c3.53,9.84,7.39,19.55,12,28.97c2.26,4.63,4.01,9.49,4.62,14.68c0.43,3.68,2.17,5.86,6,6.92
		c3.4,0.95,7.25,1.48,9.63,4.73c7.68,2.71,15.27,5.61,22.43,9.55c7.66,4.22,11.7,10.92,12.24,19.35
		c0.87,13.52-0.53,26.92-4.23,39.98c-1.41,4.98-3.7,9.59-7.35,13.43c-6.55,6.87-14.38,8.54-23.09,4.81
		c-1.68-0.72-3.49-1.25-4.99-2.24c-2.84-1.87-4.82-1.08-6.58,1.5c-8.15,11.95-20.73,15.48-33.95,17.09
		c-8.56,1.05-17.32,0.95-25.78-1.31c-3.58-0.96-3.29,1.45-3.87,3.43c-7.15,24.43-11.73,49.45-17.08,74.29
		c0.56,2.65,0.42,5.24-0.57,7.79c-6,15.44-4.71,31.61-4.8,47.64c-0.02,2.92,0.65,6.02-1.49,8.6c0.12,47.19-12.25,92.43-21.59,138.13
		c-2.24,10.95-3.99,21.91-2.98,33.15c0.48,5.38,1.81,10.45,4.52,15.15c4.53,7.86,5.1,16.38,3.98,25.14
		c-0.58,4.57-2.54,6.8-7.85,6.67c-77-1.88-154-3.52-231-5.24c-22.62-0.5-45.23-1.09-67.85-1.56c-3.18-0.07-6.12-0.49-7.53-3.71
		c-1.64-3.75-3.93-3.71-7.54-2.66c-75.35,21.87-154.33-23.18-173.59-98.9c-20.1-78.98,31.9-157.37,112.43-169.54
		c13.76-2.08,27.46-2.08,41.23-0.11c4.47,0.64,5.59,2.98,5.15,6.8c-1.26,11.07-2.67,22.12-3.88,33.19c-0.45,4.1-2.86,4.65-6.29,4.36
		c-19.24-1.63-37.31,2.18-54.24,11.58c-34.09,18.93-52.54,57.26-46.13,96.16c6.1,37.02,35.99,66.1,74.77,72.49
		c12.47,2.05,24.84,1.01,37.11-1.99c3.71-0.91,5.49-3.44,7.1-6.4c6.41-11.81,8.55-24.76,9.69-37.88c1.3-15.01,4.12-29.6,10.14-43.48
		c-0.19-3.8,1.6-6.91,3.36-10.09c13.69-24.84,32.4-45.47,53.59-64.03c1.39-1.22,2.81-2.32,4.78-2.33
		c8.76-5.73,14.41-14.07,19.34-23.02c5.68-10.33,11.35-20.67,17.03-31.01c-0.35-3.09,1.45-5.37,2.95-7.74
		c9.98-15.71,22.37-29.25,36.53-41.32c8.86-7.55,17.98-14.78,27.16-21.92c8.74-6.8,14.64-15.76,20.44-24.88
		c1.59-2.5,2.53-5.47,5.22-7.16c3.7-6.43,6.3-13.4,9.72-19.95C587.66,456.3,587.44,451.47,582.1,447.16z"/>
	<path class="st0" d="M807.87,400.44c-4.49-1.09-8.56-3.51-13.2-4.17c-1.93-0.28-2.62-1.78-2.84-3.59
		c-1.25-10.4-6.18-19.45-10.43-28.78c-2.59-5.7-4.84-11.59-6.74-17.55c-1.52-4.76-4.11-6.48-9.1-5.87
		c-13.56,1.64-26.79,4.17-38.16,12.4c-2.57,1.86-5.09,2.33-8.32,2c-11.11-1.12-22.18-0.69-32.87,3.01
		c-2.57,0.89-4.59,0.63-6.93-0.94c-5.09-3.42-9.96-7.1-14.7-10.97c-2.03-1.66-3.97-3.57-6.89-3.52c-2-6.73-3.42-13.57-2.66-20.61
		c0.37-3.4-0.96-3.56-3.87-3.42c-20.48,1.01-36.73-11.13-40.54-30.03c-2.5-12.38,3.55-24.41,15.38-29.22
		c17.04-6.93,32.54-2.08,47.21,7.21c4.36,2.76,8.07,6.34,11.6,10.27c1.96-1.08,2.06-3.05,2.75-4.6
		c7.81-17.47,21.09-26.24,38.16-24.47c12.35,1.28,21.83,7.67,28.08,18.39c1.8,3.09,2.8,3.88,6.22,1.8
		c10.23-6.21,21.37-7.01,32.67-3.48c18.11,5.67,24.83,22.42,15.81,39.32c-1.96,3.67-3.05,5.17,2.62,6.25
		c17.61,3.35,25.02,17.53,19.73,37.08c5.79-1.25,11.33-2.62,17.05-2.81c13.83-0.46,26.34,2.96,36.66,12.62
		c12.14,11.36,10.24,24.67-4.8,32c-16.06,7.82-32.79,7.21-49.66,3.07c-0.81-0.2-1.64-0.34-2.41-0.64c-4.83-1.87-9.35-3.67-12.2,3.2
		C814.25,397.39,810.27,398.19,807.87,400.44z"/>
	<path class="st0" d="M708.76,644.38c-0.02-9.78,0.28-19.57-0.14-29.33c-0.41-9.51,2.37-18.32,5.04-27.15
		c0.76-2.51,0.72-5.21,1.97-7.56c6,0.88,12.01,1.77,18.01,2.63c1.79,0.25,2.25-1.18,2.68-2.4c1.11-3.13,2.12-6.3,3.13-9.46
		c5.13-15.97,18.31-25.64,35.15-25.76c15.63-0.11,27.22,6.55,33.94,20.8c1.39,2.94,3.06,3.28,5.77,2.89
		c7.77-1.13,15.25,0.03,22.25,3.62c8.54,4.39,12.42,11.85,11.36,21.34c-0.67,5.93-0.67,5.95,5.5,5.82
		c6.03-0.12,11.94,0.41,17.6,2.72c7.04,2.87,12.37,7.4,13.45,15.3c1.12,8.22-2.55,14.53-9.04,19.27c-7.84,5.73-17.08,7.23-26.4,7.81
		c-13.64,0.85-27.24,0.12-40.69-2.45c-2.29-0.44-3.49-0.55-3.86,2.52c-2.21,18.64-23.41,27.91-38.85,17.14
		c-6.87-4.79-11.34-11.57-15.71-19.51c-4.48,6.99-11.79,8-18.52,9.91C722.09,655.17,715.07,650.56,708.76,644.38z"/>
	<path class="st0" d="M574.82,482.22c-7.94,16.37-19.38,29.5-34.11,40.42c-20.75,15.39-40.12,32.46-53.76,54.95
		c-1.53,2.52-2.97,5.09-4.45,7.64c-1.27-1.97-3.46-2.41-5.42-3.24c-16.55-7-29.39-17.97-36.5-34.8c-1.21-2.86-2.4-3.09-5.19-2.43
		c-14.06,3.32-27.52,1.86-39.34-6.96c-12.51-9.34-12.09-24.21,0.9-32.73c11.85-7.77,24.51-8.86,37.29-2.26
		c2.77,1.43,4.23,1.06,6.38-0.86c12.69-11.31,28.44-12.1,41.8-1.98c2.88,2.18,3.18,0.24,4.12-1.54
		c5.92-11.2,14.65-17.74,27.89-17.25c4.38,0.16,8.52,3.92,12.27,2.53c3.58-1.33,6.37-5.12,10.26-6.75
		C550.62,471.22,563.2,473.25,574.82,482.22z"/>
	<path class="st0" d="M446.15,639.27c-23.6,19.42-43.7,41.8-58.25,68.87c-1.31,2.44-2.33,5.05-3.48,7.58
		c-0.53-1.81-2.3-1.72-3.61-2.25c-3.77-1.54-7.55-3.51-9.51-6.95c-2.87-5.04-5.05-3.71-8.72-0.88c-7.09,5.46-15.26,7.1-24,4.38
		c-4.11-1.28-7.61-3.64-9.49-7.55c-1.32-2.73-2.72-3-5.41-2.13c-7.65,2.47-15.46,3.81-23.53,2.1c-7.75-1.65-12.98-6.06-14.34-13.99
		c-1.41-8.19,1.99-14.7,8.65-19.33c7.79-5.43,16.63-5.15,25.46-3.66c6.78,1.15,13.04,3.88,18.85,7.53c1.93,1.21,3.19,1.96,3.41-1.3
		c1.12-16.96,17.84-25.51,35.54-18.34c1.23,0.5,2.56,0.96,3.55,1.79c2.74,2.3,4.01,1.22,5.4-1.6c2.36-4.8,5.76-8.92,9.58-12.66
		C410.1,627.33,428.13,621.4,446.15,639.27z"/>
	<path class="st2" d="M547.03,846.76c-3.3-3.19-6.76-6.18-11.08-7.95c-1.86-0.76-3.82-1.4-5.42,0.43c-1.7,1.94-1.39,3.86,0.45,5.59
		c-0.38,2.7-2.66,2.22-4.25,2.2c-15.61-0.16-31.21-0.78-46.8-1.6c-1.16-0.06-2.31-0.3-3.48-0.28c-17.63,0.4-35.21-1.81-52.84-1
		c-10.83,0.5-21.57-1.16-32.38-1.07c-2.63,0.02-4.95-0.84-6.74-2.75c-3.43-3.67-7.76-4.02-11.98-2.52
		c-13.74,4.88-27.87,5.89-42.28,5.36c-9-0.33-17.94-1.06-26.64-3.46c-18.08-4.99-35.79-11.35-50.29-23.45
		c-15.74-13.14-29.53-28.17-37.72-47.63c-3.95-9.38-8.25-18.53-9.57-28.74c-1.52-11.77-1.17-23.58-0.36-35.35
		c0.58-8.42,0.27-17.04,3.12-25.16c8.28-23.5,18.97-45.24,39.91-60.66c10.72-7.9,21-16.16,33.38-21.5
		c13.34-5.75,27.16-7.39,41.4-6.01c4.63,0.45,9.32,0.11,13.9,1.09c5.05,1.08,6.05,2.4,5.56,7.53c-0.32,3.32-0.25,6.65-0.24,9.97
		c0.01,4-1.92,5.63-5.83,5.69c-8.31,0.13-16.6,0.77-24.81,2.03c-22.01,3.36-39.66,14.03-53.97,31.15
		c-16.33,19.52-24,42.19-24.94,67.01c-0.9,23.77,6.42,45.14,22.68,63.14c8.28,9.16,16.65,18,27.46,24.37
		c22.52,13.28,46.65,16.69,72.12,12.61c5.13-0.82,9.13-3.7,12.32-7.84c9.16-11.88,12.04-25.97,14.62-40.26
		c2.31-12.73,4.13-25.57,8.56-37.88c4.11-11.41,10.06-21.66,17.28-31.3c7.58-10.11,14.75-20.52,23.22-29.94
		c7.73-8.6,16.8-15.6,26.35-22.02c3.62-2.43,7.98-2.21,12.05-2.69c10.19-1.18,19.39-4.64,27.25-11.24c3.02-2.54,5.47-2.54,8.21,0.23
		c5.87,5.93,13.37,9.15,20.88,12.36c1.95,0.83,4.84,0.75,4.92,3.99c-7.63-0.27-15.26-1.39-22.9-0.23c-2.29,0.35-4.59,0.76-6.8,1.44
		c-2.47,0.76-4.22,2.39-3.1,5.22c0.97,2.44,2.99,2.5,5.41,2c15.42-3.21,30.47-2.05,44.67,5.02c24.37,12.13,36.86,36.02,35.45,63.93
		c-1.25,24.68-12.28,44.78-26.53,63.8c-8.09,10.8-16.73,21.09-26.9,30.03c-1.25,1.09-2.44,2.27-3.51,3.53
		c-1.2,1.4-2.36,2.91-1.31,4.93c0.99,1.9,2.73,2.14,4.66,2.16c9.63,0.11,19.27-0.61,28.89,0.58c12.58,1.56,23.81,5.89,32.7,15.29
		c0.13,1.01-0.48,1.66-1.32,1.76c-6.18,0.71-12.4,1.88-18.39-0.97c-4.04-4.7-8.77-8.48-14.39-11.16c-2.52-1.21-4.97-1.56-6.36,1.33
		c-1.29,2.7,0.49,4.26,2.82,5.39c1.63,0.79,3.16,1.78,4.74,2.68c1.19,2.75-1.04,2.7-2.48,2.63
		C553.23,848.4,549.91,848.64,547.03,846.76z"/>
	<path class="st2" d="M572.12,547.07c41.2,18.07,82.39,36.15,123.59,54.22c1.13,1.34,1.55,2.93,1.51,4.63
		c-0.25,11.94,1.09,23.89-0.07,35.81c-1.28,13.21-1.1,26.52-2.84,39.7c-2.74,20.75-5.74,41.42-11.37,61.65
		c-5.21,18.73-9.24,37.76-11.37,57.11c-1.27,11.54,0.45,22.86,4.52,33.77c1.39,3.73,3.1,7.4,3.54,11.38
		c0.13,1.17,1.02,4.83-2.68,2.37c-1.29-6.64-4.55-12.05-10-16.13c-8.44-6.31-8.71-15.97-10.1-25.11
		c-4.71-31.05,1.91-60.4,13.37-89.06c3.52-8.79,6.91-17.62,11.29-26.03c1.27-2.44,2.29-4.8-0.61-6.45
		c-3.19-1.82-4.95,0.55-6.22,3.03c-6.15,12-10.5,24.74-15.32,37.3c-11.43,29.76-14.46,60.17-8.6,91.54
		c1.59,8.52,4.96,15.73,11.9,21.15c3.17,2.48,5.91,5.41,6.16,9.8c-4.86,2.79-10.36,1.98-15.53,2.38
		c-15.45,1.22-30.89-1.08-46.36-0.87c-1.54,0.02-2.94-0.5-4.23-1.31c-4.9-6.14-10.35-11.68-17.18-15.72
		c-6.97-4.12-14.52-6.46-22.48-7.73c-7.7-1.23-15.48-0.87-23.98-1.17c4.95-5.45,9.63-10.27,13.92-15.41
		c11.85-14.19,22.97-28.96,30.42-46c8.29-18.96,10.65-39.12,6.03-59.08c-5.61-24.25-21.42-40.75-44.62-49.97
		c-1.85-0.74-3.77-1.3-5.65-1.95c0.04-2.01,1.71-2.04,2.85-1.85c4.03,0.67,7.97-0.2,11.93-0.41c11.11-0.58,20.1-5.09,26.43-14.57
		c12.98-19.42,10.48-47.86-6.35-64.23c-5.9-5.73-7.58-11.78-5.32-19.33C569.23,548.8,569.57,546.84,572.12,547.07z"/>
	<path class="st2" d="M734.72,364.49c18.62,0.4,15.85-1.63,21.06,14.71c2.68,8.39,6.79,14.62,15.91,16.6
		c2.39,0.52,4.62,1.81,6.92,2.74c1.58,2.56,4.01,3.78,6.82,4.59c7.96,2.29,15.8,4.96,23.74,7.32c11.64,3.47,18.27,10.85,19.34,23.07
		c1.08,12.41,0.22,24.51-5.46,35.88c-0.3,0.6,0.11-0.13-0.23,0.44c-2.61,4.24-4.95,9.24-11.06,8.39c-6.12-0.85-6.22-6.52-7.57-11.01
		c-0.18-0.61-0.08-1.31-0.49-1.88c-0.71-5.49-0.01-10.93,0.52-16.39c0.19-1.96,1.08-3.41,2.28-4.83c4.29-5.07,8.54-10.16,12.8-15.25
		c1.4-1.68,2.87-3.36,1.53-5.77c-1.25-2.25-3.35-2.44-5.61-2.33c-10.11,0.53-20.23,1.04-30.34,1.55c-2.18,0.11-4.39,0.11-5.51,2.53
		c-1.26,2.71,0.52,4.37,2.11,6.07c1.7,1.82,3.19,3.98,5.21,5.34c10.67,7.17,10.54,17.26,7.96,28.1
		c-3.79,12.52-10.99,22.21-23.26,27.52c-9.1,3.94-18.48,3.95-27.68,0.67c-5.62-2-10.79-5.18-15.57-8.77
		c-2.35-1.77-4.36-2.9-7.12-1.13c-0.73,0.47-1.61,0.25-2.37-0.19c-1.82-0.29-3.73-0.59-4.73,1.46c-1.05,2.14-0.54,4.3,1.04,5.9
		c2.06,2.08,4.43,3.85,6.67,5.75c2.59,3.83,2.05,8.12,0.84,11.99c-4.6,14.77-6.47,30.13-10.06,45.1
		c-2.89,12.09-6.1,24.11-9.35,36.12c-0.56,2.07-1.18,4.19-3.26,5.37c-12.54-4.33-24.38-10.3-36.51-15.58
		c-30.09-13.09-60.1-26.35-90.14-39.55c-1.69-2.22-0.28-4.47-0.02-6.69c0.67-5.8,1.5-11.6-1.64-17.01
		c-1.31-2.26-0.62-4.18,0.98-5.89c9.71-10.35,14.52-23.3,19.36-36.24c0.23-0.62,0.48-1.24,0.75-1.85c2.89-6.53,4.27-6.84,9.55-2.24
		c16.5,14.37,35.79,23.39,56.67,29.22c7.57,2.11,9.24,0.95,10.68-6.61c2.33-12.23,5.05-24.41,5.11-36.97
		c0.02-5.45,1.72-6.41,7.08-6.32c12.88,0.21,25.48-1.84,37.69-5.96c4.29-1.45,7.17-4.78,9.42-8.56c5.43-9.09,9.35-18.75,10.39-29.38
		c0.65-6.66-2.17-12.35-5.67-17.69c-2.3-3.51-4.24-7.13-5.56-11.1C725.07,367.23,726.22,365.32,734.72,364.49z"/>
	<path class="st3" d="M670.97,462.48c-0.78-8.93,0.56-17.89-0.83-26.85c-1.84-11.85-7.04-22.28-12.24-32.84
		c-3.02-6.14-5.78-12.62-4.15-19.94c0.95-4.25,3.14-6.89,7.56-7.32c2.44-0.24,4.42-1.2,4.28-3.82c-0.16-3.1-2.62-3.27-5.14-3.22
		c-7.69,0.17-14.26,7.88-14.55,17.35c-0.23,7.69,2.6,14.64,5.92,21.31c4.95,9.94,10.26,19.7,11.43,31.03
		c1.09,10.6,0.81,21.22,0.15,31.82c-0.25,3.94-1.1,7.84-1.53,11.78c-0.21,1.92-0.84,2.48-2.87,2.16
		c-12.71-2.03-24.66-6.08-36.09-12.06c-15.6-8.15-28.32-19.56-38.46-33.72c-5.66-7.9-10.29-16.55-16.43-24.16
		c-1.78-2.21-0.61-3.72,1.02-5.06c9.07-7.47,17.88-15.23,28.16-21.14c8.78-5.05,17.88-9.36,27.1-13.48
		c11.79-5.26,21.92-13.04,31.55-21.44c2.52-2.2,3.74-1.97,6.06,0.11c4.3,3.86,8.74,7.6,13.79,10.53c4.01,2.33,8.17,2.72,12.46,1.33
		c12.44-4.03,25.13-3.44,37.86-2.21c0.6,0.06,1.15,0.56,1.73,0.85c-3.73,1.1-4.98,4.03-5.51,7.48c-3.73,0.61-5.74,2.85-7.12,6.36
		c-2.72,6.91-7.85,11.58-14.39,15.16c-9.15,5.02-14.47,13.39-18.01,22.97c-0.39,1.05-0.71,2.25,0.26,3.32
		c1.62,0.32,1.8-1.11,2.28-2.03c1.06-2.07,1.67-4.33,2.83-6.36c3.46-6.06,4.82-6.11,8.52-0.25c2.62,4.16,6.59,5.36,11.18,4.92
		c4.32-0.41,7.6-2.56,8.96-6.79c1.45-4.53,1.11-8.87-2.52-12.44c-4.66-4.58-4.67-4.58-0.57-9.7c2.31-2.88,3.97-6.09,5.34-9.5
		c0.77-1.93,1.05-4.28,3.33-5.31c4.57,12.18,15.16,22.16,13.7,36.53c-1.16,11.38-3.03,22.52-13.86,29.44
		c-5.19,3.32-10.97,4.6-16.94,5.27c-1.51,0.17-2.99-0.17-4.01-1.51c-1.83-6.78-5.23-12.99-6.78-18.94
		c-1.21,6.77-5.8,13.45-5.5,21.28c-2.99,2.2-6.61,1.87-9.99,2.33c-5.52,0.76-5.58,0.66-5.66,6.39c-0.03,2.15,0.13,4.31-0.12,6.45
		C673,460.12,673.17,462.01,670.97,462.48z"/>
	<path class="st3" d="M456.14,641.01c12.79-11.93,19.14-28.01,27.41-42.82c9.06-16.23,18.67-32.05,32.22-44.98
		c6.69-6.38,14.03-12.08,21.01-18.16c2.38-2.08,4.83-1.78,7.37-0.64c7.96,3.58,15.91,7.2,23.86,10.8c0.44,2.07-0.37,3.89-1.01,5.8
		c-3.74,11.06-2.21,16.05,6.44,23.67c21.92,19.33,15.24,46.64-0.93,60.77c-7.4,6.46-15.51,11.01-25.46,11.25
		c-17.49,0.41-33.39-3.66-44.99-17.95c-2.66-3.28-4.34-3.1-7.01-0.28c-7.72,8.18-17.57,12.48-28.43,14.44
		C463.12,643.55,459,644.99,456.14,641.01z"/>
	<path class="st4" d="M456.14,641.01c6.91,2.62,13.4,0.26,19.79-1.91c7.81-2.66,14.62-7.07,20.06-13.35
		c2.03-2.34,3.26-3.04,5.45,0.11c9.02,12.98,22.37,17.42,37.41,19.47c21.34,2.91,40.64-13.09,45.67-31.02
		c4.53-16.14-0.51-28.86-11.6-38.05c-10.1-8.36-11.05-13.91-6.36-27.42c0.42-1.22,0.22-2.71,1.45-3.61
		c1.37,0.62,2.74,1.23,4.11,1.85c-4.28,4.91-4.52,14.73,0.26,18.84c13.83,11.87,17.78,27.62,17.44,44.68
		c-0.35,17.59-12.92,39.97-38.12,39.74c-4.09-0.04-8.44-0.94-12.53,0.59c-2.77-0.27-5.54-0.5-8.1-1.73
		c-6.01-3.82-13.08-5.44-19.07-9.39c-3.23-2.13-6.26-4.35-8.85-7.19c-1.16-1.27-2.22-1.92-3.73-0.42
		c-10.05,10-22.9,12.73-36.34,13.83c-1.55,0.13-2.96,0.45-4.22,1.28c-13.68,9.05-25.77,19.86-35.51,33.09
		c-8.15,11.07-16.97,21.69-23.83,33.68c-6.16,10.76-9.85,22.37-12.27,34.48c-2.66,13.3-4.37,26.82-8.38,39.8
		c-2.84,9.2-6.94,17.87-14.16,24.62c-5.28,4.93-12.21,5.22-18.69,5.59c-19.8,1.14-39.11-1.33-57-10.57
		c-23.83-12.31-39.95-31.97-51.57-55.59c-3.7-7.51-4.09-16.02-4.84-24.23c-3.31-36.46,8.8-67.31,35.56-91.94
		c12.39-11.4,27.54-18.27,44.62-20.19c8.24-0.93,16.47-1.96,24.77-1.81c2.75,0.05,3.83-0.82,3.84-3.69
		c0.02-4.46-0.57-8.95,0.64-13.4c0.58-2.14-1.03-2.86-2.91-3.09c-11.37-1.4-22.74-2.28-34.23-1.58
		c-21.47,1.31-37.79,12.9-53.47,26.05c-8.79,7.37-18.3,14.12-24.07,24.27c-10,17.59-19.66,35.24-20.07,56.49
		c-0.2,10.44-0.79,20.9-0.72,31.36c0.07,10.42,2.95,20.18,6.73,29.87c7.54,19.29,19.62,35.24,34.56,49.29
		c11.32,10.65,24.83,17.31,39.09,23.15c20.56,8.43,41.86,9.81,63.55,8.64c6.76-0.36,13.29-2.62,19.76-4.69
		c5.82-1.86,11.39-2.63,15.7,3.15c0.95,1.27,2.32,1.77,3.95,1.72c11.14-0.36,22.2,1.55,33.36,1.07c18.12-0.77,36.21,0.91,54.33,1.08
		c16.08,0.15,32.16,1.25,48.24,1.84c1.7,0.06,3.69,0.85,5.12-0.94c3.51,1.12,6.28,3.25,9.76,6.71c-6.5,0-11.76,0.31-16.97-0.06
		c-14.79-1.05-29.59-0.58-44.39-0.93c-30.08-0.71-60.17-1.39-90.26-1.9c-3.38-0.06-5.19-1.42-6.6-4.16
		c-2.15-4.19-5.09-5.1-9.82-3.54c-52.55,17.35-111.13-0.91-144.67-44.68c-19.95-26.03-29.37-55.46-27.22-88.02
		c3.99-60.52,47.83-108.61,106.61-119.21c11.55-2.08,23.13-2.25,34.77-1.69c6.44,0.31,6.36,0.45,5.49,6.71
		c-0.87,6.25-1.8,12.51-2.1,18.8c-0.18,3.9-1.71,4.49-5.19,4.45c-31.16-0.36-57.56,10.72-78.39,33.95
		c-40.41,45.06-31.11,115.06,18.73,146.95c23.09,14.78,47.84,18.18,74.53,13.79c11.13-1.83,15.46-9.1,19.11-17.89
		c4.76-11.48,6.9-23.62,7.69-35.9c1.64-25.73,11.15-48.28,26.42-68.71C422.16,671.18,437.7,654.68,456.14,641.01z"/>
	<path class="st5" d="M721.83,371.43c0-0.64,0.12-1.31-0.01-1.93c-1.06-5.03,1.18-6.76,5.94-6.01c2.32,0.33,4.64,0.67,6.96,1
		c-8.24,3.5-8.33,3.57-4.94,12.46c1.06,2.77,2.28,5.61,4.04,7.96c6.17,8.25,8.07,17.18,5.52,27.18c-2.03,7.95-5.42,15.28-9.32,22.45
		c-5,9.19-14.05,11.19-23.07,12.68c-9.07,1.49-18.14,3.74-27.5,2.33c-2.9-0.43-3.68,1.47-3.63,4.04c0.3,13.19-2.71,25.96-5.09,38.79
		c-1.52,8.19-3.62,9.77-11.48,7.55c-21.92-6.21-42.34-15.46-59.3-31.12c-2.56-2.37-3.85-2.49-5.15,0.91
		c-1.96,5.1-4.27,10.08-6.15,15.21c-3.47,9.47-8.56,17.92-15.29,25.41c-0.81,0.9-2.61,1.67-1.54,3.22
		c5.7,8.25,2.83,16.88,1.29,25.46c-1.09-0.58-2.17-1.16-3.26-1.74c-0.49-0.66-1.03-1.38-1.02-2.2c0.06-7.46-1.27-14.63-4.31-21.48
		c-0.34-0.76-0.09-1.61,0.55-2.25c9.45-11.49,16.24-24.59,22.67-37.88c2.02-4.17,2.83-10.54,6.02-12.04
		c2.76-1.3,6.63,4.8,10.23,7.36c17.66,12.56,37.2,20.28,58.64,23.23c3.64,0.5,5.81-1.18,6.15-4.76c0.8-8.25,2.25-16.45,2.17-24.77
		c1.75-4.61,0.75-9.4,0.75-14.08c0.01-3.31,1.12-4.23,4.28-4.17c4.34,0.09,8.72-0.09,12.82-1.86c4.81,2.54,9.07,1.73,12.84-2.08
		c2.4,2.4,4.96,0.72,7.44,0.24c14.9-2.9,21.68-9.88,24.62-24.8c1.9-9.63,1.53-18.76-4.12-27.23c-3.5-5.24-5.98-11-7.78-17.05
		L721.83,371.43z"/>
	<path class="st5" d="M676.95,847.71c1.85,0.95,2.05-0.18,1.7-1.51c-0.58-2.24-1.12-4.54-2.06-6.63
		c-8.98-19.87-7.39-40.17-3.37-60.85c4.29-22.09,11.21-43.56,14.98-65.73c2.55-14.98,4.68-30.03,5.8-45.23
		c0.9-12.21,1.74-24.46,2.2-36.65c0.37-9.85-0.17-19.87-0.5-29.81c4.81,0.81,5.95,3.38,5.41,8.27c-0.75,6.74-0.42,13.63-0.22,20.44
		c1.01,35.25-3.17,69.89-11.22,104.21c-4.74,20.18-9.07,40.51-12.24,60.98c-2.1,13.57-2.51,27.54,5.1,40.28
		c2.77,4.63,3.49,9.98,3.17,15.42c-0.13,2.18-0.36,4.02-3.23,3.93c-2.32-0.07-4.87,0.48-4.82-3.22
		C677.68,850.3,677.2,849,676.95,847.71z"/>
	<path class="st5" d="M803.69,465.34c1.07,2.58,1.99,5.23,3.25,7.71c2.54,5.02,6.85,5.72,10.77,1.8c5.3-5.29,7.51-12.22,8.63-19.22
		c1.28-7.96,1.76-16.01,0.53-24.22c-1.43-9.51-6.46-15.59-15.04-18.62c-9.03-3.2-18.33-5.63-27.52-8.34
		c-3.06-0.9-5.6-2.19-5.69-5.91c14.37,5.16,29.04,9.43,43.12,15.42c10.11,4.3,14.6,11.55,13.66,22.31
		c-0.95,10.89-1.1,21.9-4.79,32.39c-1.41,3.99-3.31,7.67-6.61,10.37c-7.52,6.13-17.02,2.98-19.32-6.35
		C804.07,470.28,803.22,467.89,803.69,465.34z"/>
	<path class="st4" d="M718.63,482.45c0.89-0.41,2.04-0.6,2.61-1.27c2.3-2.74,3.95-1.41,6.22,0.28c9.1,6.79,18.46,12.68,30.72,12
		c17.02-0.94,27.22-10.5,33.9-25.11c0.66-1.44,0.55-3.4,2.56-4c0.65,16.11-8.34,27.4-24.65,30.88c-9.21,1.96-18.56,1.74-27.79,0.77
		C732.55,495,724.87,489.79,718.63,482.45z"/>
	<path class="st5" d="M750.74,357.5c-4.69-0.3-9.38-0.61-14.07-0.91c8.99-5.39,18.67-7.57,28.77-8.19c1.37-0.08,2.08,0.77,2.57,1.94
		c4.84,11.62,9.77,23.2,14.46,34.89c0.68,1.69,2.19,4.08,0.69,5.61c-1.6,1.63-3.59-0.55-5.42-0.97c-1.1-0.25-2.13-0.81-3.19-1.24
		c-0.34-7.96-3.79-14.97-6.81-22.1c-0.84-1.97-1.91-3.85-2.75-5.82c-2.7-6.34-2.75-6.45-9.02-4.22
		C754.21,357.11,752.36,356.61,750.74,357.5z"/>
	<path class="st6" d="M602.71,847.96c13.95-1.01,27.84,1.18,41.78,0.76c8.12-0.24,16.23-0.64,24.34-0.97
		c2.18,6.58,1.96,6.99-4.63,6.82c-18.28-0.48-36.55-1.17-54.82-1.47C605.4,853.05,603.65,851.34,602.71,847.96z"/>
	<path class="st7" d="M699.78,594.14c7.58-24.53,13.31-49.5,18.03-74.73c1.48-7.92,5.35-15.44,3.81-23.85
		c4.58,1.84,4.99,4.82,3.61,9.39c-7.8,25.71-11.84,52.31-18.26,78.35c-0.79,3.22-1.88,6.36-2.65,9.58
		C703.51,596.23,702.12,596.7,699.78,594.14z"/>
	<path class="st8" d="M750.74,357.5c11.2-5.91,11.15-5.89,16.49,4.94c3.14,6.37,5.76,12.94,7.79,19.74
		c0.65,2.18,1.54,4.44-0.48,6.45c-6.33-1.04-9.73-4.88-11.23-11.02c-1.14-4.66-2.79-9.21-4.95-13.54
		C756.73,360.78,754.46,358.32,750.74,357.5z"/>
	<path class="st9" d="M565.08,511.35c3.55,8.28,6.1,16.75,4.78,25.93c-7.77-0.84-13.96-5.79-21.12-8.24
		c-1.84-0.63-1.94-2.3-0.39-3.51C554.12,521.02,559.81,516.43,565.08,511.35z"/>
	<path class="st10" d="M572.09,847.68c6.57-0.39,13.21,1.16,19.71-0.79c1.65,1.37,2.9,3.03,4.18,5.65c-6.99,0-13.6,0.18-20.2-0.09
		C573.27,852.35,573.48,849.19,572.09,847.68z"/>
	<path class="st11" d="M791.73,429.52c5.52,0,10.81,0,16.12,0c0.32,1.24-0.8,1.69-1.37,2.39
		C799.71,440.32,797.89,440.07,791.73,429.52z"/>
	<path class="st12" d="M547.03,846.76c3.18,0.31,6.43-0.37,9.57,0.68c1.3,0.43,2.21,0.02,2.31-1.51c2.47,1.1,3.92,3.25,5.9,5.2
		C555.18,853.43,550.82,852.3,547.03,846.76z"/>
	<path class="st13" d="M479.78,652.1c3.29,0.12,5.41,3.64,3.37,5.62c-4.3,4.16-5.67,9-5.48,14.73c0.06,1.92-1.55,3.34-3.63,3.38
		c-2.05,0.04-3.33-1.24-3.87-3.2c-1.54-5.6,2.06-15.73,6.83-19.28C477.94,652.66,478.9,652.01,479.78,652.1z"/>
	<path class="st13" d="M444.17,679.52c-0.19,3.55,0.51,6.91,1.97,10.14c1.12,2.47,0.71,4.74-1.86,5.86
		c-2.72,1.18-4.2-0.45-5.26-2.93c-2.14-4.99-3-10.16-2.44-15.52c0.28-2.69,0.9-5.6,4.6-5.21c3.49,0.37,3.31,3.09,3.09,5.67
		C444.22,678.2,444.2,678.86,444.17,679.52z"/>
	<path class="st14" d="M452.92,673.51c0.01-3.03,0.39-5.99,1.36-8.84c0.75-2.22,2.12-4.04,4.71-3.34c2.62,0.71,3.61,2.61,2.69,5.4
		c-1.33,4.03-1.25,8.16-0.47,12.29c0.49,2.58,0.13,4.85-2.83,5.37c-2.88,0.51-4.26-1.46-4.72-3.98
		C453.26,678.15,453.16,675.82,452.92,673.51z"/>
	<path class="st15" d="M693.44,481.8c2.57,6.61,4.65,11.95,6.71,17.3c1.26,3.28,0.94,6.3-2.22,8.27c-2.5,1.56-5.5,1.86-7.85-0.03
		c-2.48-1.99-4.15-4.57-2.72-8.24C689.44,493.76,691.18,488.29,693.44,481.8z"/>
	<path class="st16" d="M693.46,552.97c2.46,6.57,4.42,12.14,6.63,17.6c1.43,3.55,0.38,6.07-2.5,8.19c-2.53,1.86-5.31,1.48-7.38-0.18
		c-2.46-1.98-4.1-4.83-2.87-8.34C689.23,564.8,691.18,559.38,693.46,552.97z"/>
	<path class="st17" d="M721.84,371.45c-1.49,6.59-4.2,12.58-8.9,17.5c-1.66,1.74-2.34,2.59,0.22,4.4c5.49,3.89,7.08,9.14,5.22,14.79
		c-1.63,4.95-5.92,8.15-11.21,8.37c-6.75,0.28-10.6-2.31-13.29-8.98c-0.18-0.45-0.29-0.94-0.52-1.72
		c-4.01,3.11-5.18,7.64-7.01,11.78c-0.76,1.73-1.12,4.4-3.9,3.36c-2.44-0.92-1.95-3.33-1.29-5.19c3.6-10.12,9.18-19.03,18.82-24.16
		c7.7-4.1,12.77-9.95,15.52-17.91c1.34-3.87,2.99-4.95,6.34-2.25C721.83,371.43,721.84,371.45,721.84,371.45z"/>
	<path class="st18" d="M701.67,440.28c-3.14,6.44-7.68,7.17-12.84,2.08c-1.16-2.37-1.11-4.7-0.18-7.18
		c1.93-5.1,3.67-10.26,5.82-16.31C696.51,426.66,701.04,432.75,701.67,440.28z"/>
	<path class="st19" d="M710.99,405.26c-0.28,2-1.96,3.72-5.15,3.48c-2.93-0.22-4.65-2.24-4.6-4.91c0.05-2.92,1.97-5.11,5.11-4.87
		C709.22,399.17,711.3,400.78,710.99,405.26z"/>
</g>
</svg>
