<?xml version="1.0" encoding="utf-8"?>
<!-- Generator: Adobe Illustrator 25.2.1, SVG Export Plug-In . SVG Version: 6.00 Build 0)  -->
<svg version="1.1" id="Слой_1" xmlns="http://www.w3.org/2000/svg" xmlns:xlink="http://www.w3.org/1999/xlink" x="0px" y="0px"
	 viewBox="0 0 1162.2 1162.2" style="enable-background:new 0 0 1162.2 1162.2;" xml:space="preserve">
<style type="text/css">
	.st0{fill:#403E40;}
	.st1{fill:#FECF04;}
	.st2{fill:#E9D75F;}
	.st3{fill:#F3D948;}
	.st4{fill:#F8F4C4;}
	.st5{fill:#F3E86C;}
	.st6{fill:#EFD75B;}
	.st7{fill:#F5EEA1;}
	.st8{fill:#EDD965;}
	.st9{fill:#F0E374;}
	.st10{fill:#EDD96A;}
	.st11{fill:#F7E06E;}
	.st12{fill:#EFDD65;}
	.st13{fill:#F7F0AA;}
	.st14{fill:#F1D550;}
	.st15{fill:#F1E765;}
	.st16{fill:#ECDE60;}
	.st17{fill:#F8EEA1;}
	.st18{fill:#E9DE74;}
	.st19{fill:#F7EB8A;}
	.st20{fill:#ECED93;}
	.st21{fill:#F4E790;}
	.st22{fill:#CAC7CA;}
	.st23{fill:#605B5F;}
	.st24{fill:#9E9B9E;}
	.st25{fill:#9D9B9E;}
	.st26{fill:#AF0B35;}
	.st27{fill:#C9C6C9;}
	.st28{fill:#9C999C;}
	.st29{fill:#C7C4C7;}
	.st30{fill:#9E9C9F;}
	.st31{fill:#141213;}
	.st32{fill:#151213;}
	.st33{fill:#121011;}
	.st34{fill:#4889A4;}
</style>
<g>
	<path class="st0" d="M569.98,813.24c-49.63-1.11-99.27-2.26-148.9-3.26c-4.39-0.09-7.91-0.88-9.74-5.25
		c-1.34-3.23-3.6-1.95-5.85-1.33c-44.8,12.24-86.19,5-123.57-22.57c-44.6-32.89-64.77-90.54-51.13-144.36
		c13.51-53.35,58-93.5,112.61-101.73c13.78-2.08,27.5-2.08,41.3-0.12c4.4,0.62,5.72,2.83,5.27,6.74
		c-1.27,11.08-2.68,22.15-3.89,33.24c-0.44,4.04-2.74,4.74-6.25,4.44c-19.45-1.65-37.68,2.3-54.79,11.81
		c-33.8,18.79-52.7,58.55-45.71,96.58c6.91,37.61,36.78,66.28,75.35,72.17c12.17,1.86,24.22,0.81,36.2-1.94
		c4.37-1,6.27-4.09,8.04-7.49c5.62-10.84,8.25-22.61,8.88-34.59c1.84-35.07,16.53-64.33,39.26-90.24
		c9.68-11.03,19.41-22.02,31.37-30.67c9.12-6.6,15.89-15.03,21.19-24.86c6.47-12.01,13.04-23.98,19.78-35.85
		c13.38-23.55,32.9-41.66,54.58-56.93c23.85-16.79,35.98-40.81,46.61-66.36c0.79-1.9,0.98-3.7-0.63-5.54
		c-7.96-9.04-13.72-19.64-20.74-29.35c-1.27-1.75-2.46-3.61-3.98-5.12c-4.57-4.54-4.78-6.31,0.03-10.73
		c11.17-10.27,22.68-20.14,36.26-27.2c5.61-2.91,11.14-6.03,16.94-8.53c14.22-6.13,26.95-14.44,38.47-24.74
		c5.34-4.78,6.2-4.58,11.87-0.13c4.71,3.7,9.55,7.23,14.31,10.87c2,1.53,4.03,1.83,6.54,1.15c11.67-3.18,23.5-4.75,35.57-2.6
		c2.02,0.36,3.55-0.39,5.05-1.53c12.47-9.49,27.17-12.04,42.2-13.59c2.23-0.23,4.12,0.2,4.87,2.45
		c5.24,15.61,14.87,29.58,17.79,45.96c1.02,5.75,3.58,7.73,8.62,9.21c10.37,3.04,20.57,6.68,30.18,11.77
		c8.06,4.27,12.52,11.04,13.07,19.93c0.85,13.54-0.54,26.96-4.26,40.05c-1.56,5.5-4.23,10.5-8.44,14.52c-3.63,3.47-8,6-12.97,5.45
		c-5.73-0.64-6.02,1.87-6.27,6.57c-1.18,22.38-6.81,43.38-21.26,61.19c-8.96,11.03-17.26,13.07-28.9,7.47
		c-9.85-4.74-13.47-14.05-9.43-24.21c1.75-4.41,4.83-7.95,7.55-11.72c4.61-6.38,8.65-13.01,10.23-20.9c0.66-3.29,0.51-4.72-3.7-4.13
		c-9.1,1.3-18.33,1.31-27.33-0.69c-3.52-0.78-4.37-0.03-5.32,3.28c-6.89,24.03-11.44,48.59-16.73,72.98
		c-0.07,0.33-0.07,0.67-0.19,0.98c-7.64,19.56-7.52,39.99-7.19,60.53c0.52,33.33-4.91,65.93-12.03,98.42
		c-4.45,20.29-9.71,40.48-12.11,61.19c-1.34,11.59-0.61,22.84,5.41,33.41c4.22,7.41,3.94,15.69,2.63,23.88
		c-0.61,3.78-2.54,5.6-6.82,5.49c-49.96-1.27-99.93-2.37-149.89-3.52C569.98,813.21,569.98,813.22,569.98,813.24z"/>
	<path class="st1" d="M612.93,274.08c5.23,4.71,10.48,9.4,15.69,14.13c1.73,1.57,3.3,3.24,2.55,5.94c-0.78,2.82-3.21,1.8-4.96,2.11
		c-9.66,1.68-19.45,1.65-29.2,1.72c-3.68,0.03-4.27,1.43-4.21,4.75c0.1,5.83,2.88,11.23,2.41,17.09c1.65,2.49,0.28,5.65,1.8,8.17
		c0.17,1.97,0.3,3.94,0.53,5.9c0.58,4.87-3.19,8.26-7.19,5.74c-4.59-2.89-9.69-5.23-13.41-9.43c-3.41-3.56-7.43-6.24-11.93-8.21
		c-5.28-3.07-5.64-2.86-10.04,5.83c-1.09,2.16-2.05,4.41-3.92,6.07c-3.62,4.47-5.82,9.92-9.88,14.08c-4.29,4.37-5.28,4.12-8.07-2.03
		l-0.05,0.05c-2.01-2.39,0.13-5.73-1.86-8.12c-0.01-4.1-2.6-7.76-2.07-11.96c-1.76-2.34,0.06-5.65-2.16-7.86
		c-4.48-2.3-7.61,1.55-11.17,2.78c-5.1,1.76-9.78,4.74-14.63,7.2c-3.03,2.24-6.09,4.37-10.01,1.89l0.07-0.08
		c-1.77-2.61-1.16-5.23-0.05-7.86c2.88-9.43,7.91-18.1,9.74-27.89c-2.21-2.12-5.56-0.09-7.78-2.16l0.06-0.09
		c-1.73-1.67-4.42-0.12-6.13-1.84c-0.62-0.06-1.23-0.13-1.85-0.19c-1.75-1.62-4.42-0.09-6.14-1.81l0,0c-2.32-2.22-5.7,0-8.09-1.92
		c-0.29-0.04-0.57-0.08-0.86-0.13c-3.12-3.78-2.85-6.37,1.02-9.99c7.31-4.69,14.63-9.38,21.94-14.07c0.49-0.45-0.2,0,0.37-0.31
		c4.75-2.54,4.91-5.86,1.75-9.79c-0.06-0.56-0.13-1.12-0.19-1.68c-1.16-2.15-2.23-4.37-4.08-6.06c-3.74-5.33-7.52-10.63-11.2-16.01
		c-1.22-1.78-0.76-3.83-0.41-5.81c2.53-2.05,5.15-1.55,7.81-0.31c0.61,0.06,1.22,0.13,1.83,0.19c1.8,1.57,4.44,0.14,6.23,1.74
		c0.63,0.05,1.26,0.1,1.89,0.15c2.52,1.37,5.54,0.61,8.07,1.93c3,0.12,5.81,1.16,8.7,1.81c5.56,1.25,6.8,0.21,6.99-5.54
		c0.33-10.07,0.17-20.18,2.44-30.09c2.6-1.81,5.26-1.41,7.96-0.25c6.56,7.28,13.46,14.3,19.56,21.95c3.11,3.9,5.26,3.52,8.32,0.66
		c7.31-6.84,14.66-13.64,21.99-20.46c5.45-1.81,7.07-0.98,6.91,4.24c-0.26,8.61,1.11,17.28-0.81,25.84
		c0.03,6.91,0.03,7.02,6.87,6.91c8.81-0.14,17.62-0.46,26.42-0.76c2.38-0.08,4.65,0.04,6.52,1.77c1.56,2.64,1.52,5.28,0.03,7.92
		c-7.33,7.67-14.65,15.35-21.98,23.02c-2.39,3.28,0.4,4.82,2.15,6.87C608.83,271.71,610.95,272.76,612.93,274.08z"/>
	<path class="st2" d="M587.21,224.1c-0.04-8.07-0.36-16.16,0-24.21c0.22-4.86-1.4-6.67-6.1-5.87c0.4-2.76,2.57-2.06,4.25-2.05
		c1.92,0,3.33,1.42,3.4,3.03c0.36,9.37,0.68,18.76-0.49,28.11C588.22,223.47,587.57,223.77,587.21,224.1z"/>
	<path class="st3" d="M565,322.01c5.35,0.74,9.77,2.83,11.93,8.21C571.82,329.13,568.79,325.01,565,322.01z"/>
	<path class="st4" d="M495.21,251.81c5.74,5.24,5.32,7.26-2.13,10.1c0.02-0.49-0.12-1.06,0.07-1.47
		C495.39,255.77,495.4,255.78,495.21,251.81z"/>
	<path class="st5" d="M612.93,274.08c-4.91-0.04-6.69-4.37-9.44-7.2c-1.25-1.28-0.34-3.15,1.58-3.93c-0.51,4.57,3.11,6.43,5.9,8.75
		C611.82,272.41,613.06,272.61,612.93,274.08z"/>
	<path class="st6" d="M533.09,345.96c0.31,0.07,0.84,0.06,0.89,0.22c1.45,4.39,4.05,4.12,7.18,1.82c-0.3,2.74-1.87,4.39-4.58,3.97
		C533.26,351.45,532.65,348.9,533.09,345.96z"/>
	<path class="st7" d="M491.14,329.93c3.61,0.81,6.67-1.27,10.01-1.89C498.06,332.8,494.37,333.5,491.14,329.93z"/>
	<path class="st8" d="M471.14,275.97c-2.07,3.15-3.08,6.42-1.02,9.99c-3.44,0.21-2.98-2.31-3.08-4.42
		C466.91,278.6,467.63,276.25,471.14,275.97z"/>
	<path class="st9" d="M531.19,337.88c3.49,2.05,1.38,5.38,1.86,8.12C529.49,343.96,531.6,340.63,531.19,337.88z"/>
	<path class="st10" d="M531.25,191.87c-2.65,0.08-5.3,0.17-7.96,0.25C525.74,189.11,528.54,189.02,531.25,191.87z"/>
	<path class="st11" d="M470.98,286.1c2.73,0.51,6.15-1.9,8.09,1.92C476.33,287.53,473.01,289.52,470.98,286.1z"/>
	<path class="st12" d="M627.05,239.94c-0.01-2.64-0.02-5.28-0.03-7.92C630.07,234.68,630.08,237.36,627.05,239.94z"/>
	<path class="st13" d="M487.14,221.94c-2.6,0.1-5.21,0.21-7.81,0.31C481.44,219.11,484.16,219.01,487.14,221.94z"/>
	<path class="st14" d="M490.94,244.07c3.25,0.75,4.45,2.88,4.08,6.06C492.48,248.9,491.12,246.88,490.94,244.07z"/>
	<path class="st15" d="M597,328c-2.36-2.34-2.12-5.25-1.8-8.17C598.51,321.95,596.73,325.2,597,328z"/>
	<path class="st16" d="M526.96,318.06c4.25,1.65,1.35,5.27,2.16,7.86C526.53,323.81,527.24,320.8,526.96,318.06z"/>
	<path class="st17" d="M493.13,291.94c2.76,0.1,5.81-0.82,7.78,2.16C498.36,293.21,494.84,295.84,493.13,291.94z"/>
	<path class="st18" d="M491.16,321.99c0.02,2.62,0.03,5.24,0.05,7.86C487.31,327.25,488.92,324.62,491.16,321.99z"/>
	<path class="st19" d="M551.04,333.91c0.69-2.42,1.37-4.85,3.92-6.07C555.53,331.08,553.86,332.86,551.04,333.91z"/>
	<path class="st11" d="M487.05,290.02c2.17,0.18,4.84-1.29,6.13,1.84C491.07,291.48,488.28,293.36,487.05,290.02z"/>
	<path class="st11" d="M479.07,288.01c2.11,0.38,4.86-1.4,6.14,1.81C483.06,289.56,480.34,291.25,479.07,288.01z"/>
	<path class="st20" d="M505.15,225.95c-2.89,0.19-5.76,0.31-8.07-1.93C499.97,223.8,502.89,223.47,505.15,225.95z"/>
	<path class="st21" d="M495.19,223.87c-2.2-0.12-4.84,1.31-6.23-1.74C491.13,222.4,493.87,220.61,495.19,223.87z"/>
	<path class="st22" d="M565.11,603c-7.8-0.21-15.6-1.48-23.41-0.17c-2.12,0.36-4.26,0.73-6.31,1.36c-2.51,0.78-4.17,2.47-3.1,5.25
		c0.95,2.46,3.01,2.48,5.42,1.99c15.98-3.26,31.46-1.87,46.07,5.71c23.77,12.35,36.2,37.08,34.05,64.84
		c-1.53,19.77-8.66,37.04-19.81,53.04c-10.02,14.37-20.68,28.17-33.93,39.77c-1.37,1.2-2.74,2.48-3.78,3.96
		c-2.2,3.14-0.88,5.97,2.98,6.23c3.48,0.23,6.99,0.04,10.48-0.01c11.51-0.18,22.97,0.02,33.98,4.07
		c6.99,2.57,13.08,6.51,18.17,11.96c0.11,1.01-0.5,1.65-1.34,1.74c-6.17,0.69-12.38,1.89-18.36-0.98
		c-4.07-4.68-8.78-8.5-14.42-11.17c-2.53-1.2-4.97-1.59-6.36,1.32c-1.3,2.72,0.51,4.26,2.82,5.4c1.63,0.81,3.17,1.79,4.75,2.69
		c1.16,2.75-1.06,2.7-2.5,2.63c-3.19-0.16-6.52,0.07-9.4-1.8c-3.39-3.22-6.87-6.3-11.32-8.05c-2-0.79-3.96-1.13-5.43,0.79
		c-1.44,1.89-1.02,3.75,0.68,5.34c-0.39,2.7-2.68,2.23-4.27,2.2c-15.63-0.37-31.26-0.71-46.87-1.6c-1.16-0.07-2.32-0.3-3.48-0.28
		c-17.98,0.28-35.93-1.82-53.92-1c-10.52,0.48-20.94-1.21-31.43-1.08c-2.43,0.03-4.68-0.66-6.35-2.45
		c-3.7-3.97-8.25-4.31-12.89-2.69c-12.95,4.52-26.24,5.56-39.86,5.3c-16.39-0.31-31.84-4.06-47.2-9.6
		c-22.59-8.16-40.14-22.48-54.76-41.07c-12.8-16.28-21.71-34.34-24.63-54.91c-1.5-10.54-1.03-21.31-0.14-31.92
		c0.7-8.43,0.19-17.01,2.76-25.25c8.57-27.47,23-50.66,47.07-67.5c12.51-8.75,25.03-16.96,40.14-20.47
		c9.18-2.13,18.46-2.73,27.75-1.67c5.13,0.59,10.32,0.19,15.41,1.29c3.54,0.76,5.37,2.38,4.59,6.2c-0.57,2.79-0.41,5.64-0.44,8.47
		c-0.06,7.73-0.63,8.09-8.17,8.44c-8.13,0.38-16.3,0.6-24.34,2.12c-28.69,5.39-48.64,22.34-63.21,46.96
		c-9.48,16.01-13.63,33.56-13.88,51.54c-0.27,19.59,3.56,38.57,16.37,54.93c12.5,15.98,25.95,30.46,45.15,38.27
		c19.08,7.76,38.85,10.17,59.28,7.05c7.78-1.19,12.64-6.04,16.69-12.27c6.12-9.42,8.64-20.03,10.79-30.82
		c3.37-16.95,5.1-34.29,12.28-50.33c3.35-7.48,7.32-14.53,12.21-21.13c7.93-10.7,15.68-21.53,24.36-31.67
		c7.21-8.43,15.79-15.23,24.65-21.77c4.68-3.45,10.12-3.99,15.58-4.64c9.98-1.19,19.12-4.49,26.79-11.12c3.01-2.61,5.5-2.62,8.2,0.2
		c5.81,6.08,13.41,9.13,20.91,12.36C562.14,599.85,565.03,599.76,565.11,603z"/>
	<path class="st22" d="M606.22,500.77c41.24,18.1,82.49,36.2,123.73,54.3c1.56,1.78,1.55,3.96,1.58,6.13
		c0.46,34.49-1.12,68.84-7,102.9c-3.03,17.57-8.44,34.59-11.98,52.03c-3.08,15.15-7.06,30.16-7,45.79
		c0.03,9.08,1.71,17.86,4.89,26.35c1.46,3.9,3.12,7.76,3.24,11.99c0.04,1.56,0.15,4.01-2.5,1.53c-1.33-6.42-4.26-11.88-9.64-15.82
		c-8.7-6.36-9.15-16.14-10.47-25.47c-3.81-26.95-0.17-53.01,9.47-78.38c4.78-12.59,9.01-25.4,15.47-37.28
		c1.42-2.61,1.66-4.95-1.29-6.26c-3-1.33-4.64,0.92-5.79,3.25c-4.11,8.36-7.9,16.86-11.09,25.63
		c-6.87,18.93-13.83,37.81-15.31,58.16c-1.24,17.05-0.14,33.9,3.68,50.56c1.52,6.62,5.53,11.61,10.69,15.82
		c3.14,2.56,5.91,5.42,6.13,9.83c-5.4,2.74-11.35,2.06-17.05,2.47c-14.81,1.06-29.59-1.2-44.41-0.92c-1.7,0.03-3.3-0.42-4.72-1.38
		c-7.43-9.54-16.5-16.85-28.11-20.72c-11.35-3.79-23.14-3.91-35.69-3.74c5.46-6.13,10.47-11.56,15.26-17.17
		c8.89-10.4,16.69-21.6,23.64-33.38c12.55-21.29,16.72-44.58,11.88-68.37c-5.45-26.78-22.44-44.67-48.92-52.91
		c-0.61-0.19-1.14-0.64-1.7-0.98c0.58-2.72,2.72-1.83,4.37-1.77c6.51,0.22,12.96-0.2,19.24-1.98c7.15-2.01,12.83-6.12,17.08-12.26
		c13.66-19.75,11.45-48.52-5.83-65.14c-6.42-6.17-7.04-12.69-5.16-20.39C603.34,501.48,603.85,499.85,606.22,500.77z"/>
	<path class="st22" d="M769.03,317.92c18.71,0.45,15.82-1.68,21.1,14.75c2.69,8.38,6.78,14.65,15.93,16.61
		c2.4,0.51,4.62,1.82,6.93,2.76c1.9,3.06,4.98,4.13,8.24,5.08c9.24,2.68,18.48,5.35,27.41,9c7.76,3.18,12.26,8.79,13.66,17
		c2.4,14.12,1.19,27.78-5.27,40.75c-1.2,2.41-2.8,4.52-4.89,6.22c-4.18,3.39-9.25,2.24-11.51-2.64c-1.26-2.71-1.77-5.66-2.52-8.52
		c-0.73-5.49,0-10.93,0.5-16.39c0.18-1.95,1.05-3.42,2.26-4.84c4.29-5.07,8.57-10.15,12.8-15.27c1.36-1.65,2.98-3.29,1.61-5.75
		c-1.25-2.24-3.3-2.51-5.57-2.39c-10.11,0.54-20.23,1.07-30.35,1.55c-2.39,0.12-4.78,0.21-5.78,2.9c-0.92,2.48,0.76,4.08,2.22,5.65
		c2.04,2.19,3.9,4.64,6.28,6.39c7.32,5.39,9.93,12.35,7.87,21.14c-1.92,14.14-8.44,25.36-21.26,32.18
		c-10.4,5.53-21.33,5.89-32.18,1.43c-7.41-3.05-13.82-7.87-19.9-13.08c-2.89-2.48-4.71-5.76-5.41-9.32
		c-1.14-5.8-3.72-11.24-4.11-17.2c-4.31-3.43-6.98-2.33-7.96,3.23c-2.99,16.96,3.13,30.08,16.8,40.04
		c2.59,3.64,1.99,7.79,0.97,11.53c-7.18,26.44-11,53.68-19.08,79.89c-1,3.24-1.1,7.87-6.76,6.29c-28.5-12.44-57.01-24.86-85.5-37.32
		c-12.8-5.6-25.56-11.28-38.34-16.92c-1.67-2.23-0.27-4.48-0.01-6.7c0.67-5.81,1.48-11.61-1.66-17.04
		c-1.17-2.02-0.81-3.88,0.71-5.49c9.36-9.97,14.13-22.36,18.82-34.89c4.13-11.03,4.68-10.97,13.78-3.52
		c15.86,12.98,34.11,21.26,53.66,26.79c8.26,2.34,9.17,1.7,11-6.48c2.68-12.01,5.19-24.06,5.24-36.47c0.03-6.11,1.65-7.54,7.53-6.72
		c4.39,0.61,8.62-0.48,12.9-0.86c5.96-0.53,11.79-2.1,17.71-3.04c7.83-1.23,13.26-5.71,17.14-12.43c4.99-8.62,8.09-17.88,9.39-27.72
		c0.76-5.76-1.59-10.78-4.35-15.58c-2.49-4.33-5.16-8.54-6.76-13.33C759.48,320.68,760.59,318.77,769.03,317.92z"/>
	<path class="st23" d="M705.18,416.05c-0.79-8.93,0.44-17.88-0.9-26.86c-1.47-9.88-4.88-18.95-9.53-27.55
		c-3.35-6.2-5.81-12.62-7.38-19.4c-1.45-6.23,2.28-11.91,8.6-13.25c2.65-0.56,3.85-2.14,3.65-4.47c-0.19-2.2-2.09-2.54-4.13-2.6
		c-8.29-0.23-15.04,7.39-15.43,17.5c-0.31,8.13,2.8,15.36,6.51,22.17c7.27,13.33,12.03,27.1,11.6,42.57
		c-0.28,10.29-0.52,20.53-2.04,30.73c-0.35,2.37-0.83,2.93-3.4,2.52c-25.45-4.06-46.94-15.64-64.7-34.11
		c-7.25-7.54-12.64-16.55-18.4-25.24c-2.19-3.31-4.29-6.74-6.85-9.75c-1.99-2.34-1.95-4,0.31-5.84
		c9.25-7.52,18.08-15.53,28.59-21.43c8.83-4.95,17.92-9.32,27.14-13.45c11.47-5.14,21.28-12.79,30.8-20.8
		c2.58-2.17,4.29-2,6.89-0.01c4.34,3.31,8.15,7.29,12.99,9.99c4.18,2.33,8.42,3.02,12.92,1.52c12.11-4.05,24.51-2.92,36.89-2.23
		c0.61,0.03,1.19,0.5,1.79,0.77c-3.41,1.97-3.85,4.82-3.1,8.48c1.21,5.84,3.88,11.02,7.01,15.88c8.57,13.35,6.1,26.73,0.29,39.97
		c-3.73,8.52-11.46,12.18-20.06,14.06c-10.58,2.31-21.4,2.82-32.13,4.04c-5.58,0.63-5.59,0.58-5.66,6.4
		c-0.02,2.16,0.13,4.33-0.1,6.48C707.2,413.68,707.43,415.59,705.18,416.05z"/>
	<path class="st23" d="M490.1,594.86c12.82-11.95,19.19-28.05,27.4-42.93c8.94-16.18,18.66-31.78,31.97-44.72
		c7-6.8,14.73-12.84,22.12-19.25c1.65-1.43,3.32-1.09,5.1-0.31c8.74,3.84,17.49,7.65,26.23,11.47c-1.8,5-3.6,9.93-3.61,15.43
		c-0.01,4.75,1.59,8.39,5.19,11.3c2.84,2.31,5.5,4.76,7.8,7.67c14.1,17.79,10.37,40.44-5.81,56.31
		c-18.16,17.81-58.12,10.81-70.79-7.6c-2.1-3.05-3.85-2.79-6.3-0.33c-7.98,8.03-17.69,12.96-28.8,14.84
		C497.08,597.33,493,598.78,490.1,594.86z"/>
	<path class="st24" d="M490.1,594.86c9.56,2.86,17.95-0.93,26.2-4.85c4.96-2.36,9.54-5.58,13.02-9.89c2.76-3.42,4.46-3.12,6.81,0.37
		c11.39,16.91,39.6,22.96,56.64,16.19c18.92-7.52,31.51-28.45,26.2-48.22c-2.17-8.09-6.94-14.66-13.44-19.89
		c-8.86-7.12-10.27-22.45-2.59-29.45c1.1,0.55,2.2,1.1,3.3,1.66c-4.36,4.06-4.48,14.82,0.46,19.05
		c13.6,11.65,17.6,27.22,17.19,43.91c-0.44,17.77-10.69,36.5-31.18,39.63c-5.13,0.78-10.41,2.11-15.74,0.73
		c-1.24-0.32-2.66-0.54-3.74,0.63c-2.7-0.57-5.57-0.4-8.1-1.74c-3.44-3.1-8.16-3.43-12.09-5.56c-5.57-3.03-11.27-5.73-15.52-10.65
		c-1.11-1.29-2.29-2.58-4.09-0.74c-9.29,9.5-21.36,12.46-33.89,13.57c-6.18,0.55-10.37,3.97-14.87,7.25
		C467.03,619.72,455,637.5,442.1,654.6c-10.44,13.84-17.15,29.12-20.62,45.91c-2.78,13.45-4.54,27.12-8.36,40.35
		c-2.87,9.93-7.1,19.24-14.89,26.34c-5.69,5.18-13.22,5.14-20.25,5.5c-21.8,1.1-42.59-2.88-61.65-14.01
		c-5.3-3.1-10.19-6.85-14.72-11c-10.36-9.49-18.73-20.62-26.2-32.45c-6.61-10.46-7.65-22.38-9.34-34.22
		c-2.24-15.73,1.13-30.78,5.36-45.55c3.54-12.37,10.78-23.12,18.84-33.16c16.98-21.13,38.97-32.28,66.09-33.55
		c5.13-0.24,10.24-1.05,15.4-0.82c2.24,0.1,3.33-0.64,3.4-3.09c0.15-4.8-0.65-9.64,0.78-14.4c0.46-1.53-0.5-2.4-2.18-2.59
		c-11.87-1.34-23.7-2.33-35.71-1.53c-23.68,1.57-40.25,16.22-57.77,29.73c-20.2,15.58-29.56,37.47-37.38,60.45
		c-1.05,3.09-1.42,6.49-1.61,9.77c-0.81,13.94-1.69,27.9-1.05,41.87c0.28,6.13,1.52,12.17,3.58,17.98
		c11.85,33.47,32.38,59.68,64.52,75.73c24.07,12.02,49.85,15.94,76.52,13.79c6.56-0.53,12.96-2.64,19.28-4.67
		c5.79-1.86,11.42-2.68,15.72,3.14c1.08,1.47,2.7,1.69,4.45,1.74c14.79,0.44,29.57,1.15,44.38,1.08
		c14.63-0.07,29.28,0.14,43.87,1.06c15.75,0.99,31.53,0.94,47.28,1.81c1.71,0.09,3.69,0.8,5.16-0.9c3.39,1.31,6.57,2.9,9.35,6.67
		c-6.96,0-13.18,0.08-19.39-0.03c-4.32-0.07-8.63-0.5-12.95-0.59c-24.64-0.48-49.29-0.58-73.91-1.45
		c-14.98-0.53-29.96-0.59-44.94-0.81c-2.96-0.04-5.04-0.71-6.43-3.54c-2.33-4.75-5.57-5.6-10.97-3.88
		c-76.44,24.25-156.9-24.74-169.65-103.63c-7.3-45.16,6-84.18,38.93-115.66c27.96-26.73,62.22-37.49,100.71-34.9
		c6.64,0.45,6.53,0.59,5.66,7.03c-0.84,6.26-1.71,12.53-2.06,18.83c-0.21,3.7-1.84,4.19-5.01,4.13
		c-24.72-0.51-46.98,6.72-66.24,22.24c-21.75,17.53-34.34,40.26-37.09,68.22c-3.07,31.2,6.73,58.03,29.25,79.47
		c25.51,24.29,56.25,31.25,90.6,24.53c7.08-1.38,11.12-5.26,14.27-11.02c5.94-10.86,9.24-22.7,9.75-34.82
		c1.54-36.66,17.14-66.72,41.18-93.39C466.48,614.75,477.76,604.27,490.1,594.86z"/>
	<path class="st25" d="M705.18,416.05c1.72-4.67,0.72-9.52,0.76-14.28c0.03-3.06,1-3.91,4.01-4.03c11.42-0.49,22.79-1.58,34.03-3.75
		c14.07-2.7,21.54-10.6,24.09-24.86c1.82-10.2,1.13-19.63-4.98-28.54c-3.63-5.3-6.36-11.23-7.01-17.9
		c-0.39-3.98,0.33-6.49,5.03-5.89c2.64,0.37,5.28,0.74,7.92,1.11c-8.32,3.57-8.16,3.65-4.69,12.95c2.29,6.13,6.51,11.12,9.03,17.14
		c3.07,7.31,1.06,14.21-0.71,20.96c-1.96,7.5-5.39,14.51-9.85,21.06c-4.25,6.25-10.27,8.65-17.08,9.86
		c-8.13,1.44-16.32,2.59-24.49,3.78c-1.46,0.21-3,0.2-4.46-0.03c-6.39-1-6.69-0.84-6.71,5.35c-0.04,13.86-3.03,27.27-6.16,40.66
		c-0.82,3.5-2.49,5.67-7.12,4.55c-23.3-5.61-44.48-15.31-62.34-31.51c-3.03-2.74-4.03-2.58-5.83,1.02
		c-3.5,7.02-5.4,14.64-8.71,21.71c-3.27,6.99-7.66,13.17-12.76,18.9c-0.72,0.81-2.14,1.54-1.21,2.88
		c5.72,8.25,2.83,16.89,1.27,25.47c-0.95-0.31-1.9-0.62-2.85-0.93c-1.46-1.14-1.72-2.8-1.63-4.44c0.33-6.37-1.06-12.37-3.62-18.16
		c-0.59-1.33-1.06-2.8,0.05-4.18c11.52-14.4,19.88-30.6,26.82-47.56c1.4-3.41,2.22-3.49,4.93-1.12
		c18.93,16.61,41.24,25.76,65.99,29.34c3.62,0.52,5.85-1.04,6.14-4.75C703.7,432.59,705.3,424.39,705.18,416.05z"/>
	<path class="st25" d="M711.18,801.8c0.65,0.15,1.86,1.03,1.51-0.58c-0.74-3.38-1.39-6.87-2.75-10.01
		c-7.52-17.34-6.72-35.14-3.48-53.17c4.3-23.93,11.43-47.22,15.94-71.08c2.76-14.6,4.64-29.37,5.79-44.23
		c1.75-22.53,2.15-45.07,1.77-67.65c4.64,0.71,5.97,3.05,5.43,7.91c-0.73,6.58-0.39,13.3-0.21,19.95
		c1,35.61-3.08,70.62-11.25,105.28c-4.76,20.19-9.08,40.54-12.24,61.03c-2.09,13.58-2.49,27.56,5.13,40.3
		c2.77,4.64,3.46,10,3.15,15.44c-0.13,2.18-0.37,4.02-3.24,3.93c-2.33-0.07-4.86,0.44-4.84-3.22
		C711.88,804.39,711.43,803.09,711.18,801.8z"/>
	<path class="st26" d="M822.91,454.98c0.55,2.51-0.96,4.4-1.71,6.55c-2.59,7.49-4.62,15.21-8.26,22.27
		c-1.76,3.42-3.74,6.71-5.32,10.25c-1.12,2.51,0.03,3.77,1.62,5.04c1.95,1.56,3.7,0.5,4.57-1.18c3.83-7.37,7.93-14.65,10.97-22.34
		c2.66-6.72,4.29-13.89,5.86-20.98c0.74-3.34,0.45-6.97,0.27-10.45c-0.14-2.63,0.74-4.6,2.87-5.86c1.2-0.71,2.35-0.16,3.5,0.94
		c2.06,1.98,1.36,3.53,0.28,5.69c-0.74,1.5-0.39,3.58-0.41,5.4c-0.28,18.19-4.6,35.05-15.3,50.17c-3.48,4.91-6.87,9.31-12.33,12.17
		c-5.52,2.89-9.63,0.28-13.43-2.81c-3.43-2.8-5.5-6.08-3.57-11.44c1.61-4.47,3.76-8.15,6.68-11.74
		c6.48-7.96,11.05-16.85,11.84-27.32c0.28-3.76,6.72-9.8,10.15-9.23C824.34,450.64,822.42,453.34,822.91,454.98z"/>
	<path class="st25" d="M838.08,418.92c1.08,2.58,2.03,5.22,3.28,7.71c2.53,5.04,6.83,5.74,10.75,1.75
		c5.64-5.73,7.46-13.18,8.84-20.72c1.45-7.88,1.49-15.78,0.13-23.74c-1.3-7.61-4.89-13.11-12.21-16.22
		c-9.64-4.1-19.69-6.84-29.71-9.69c-3.22-0.92-6.08-1.95-6.19-5.98c13.32,4.68,26.89,8.68,39.98,14.04
		c14.64,5.99,18.51,12.96,16.63,28.74c-0.97,8.08-1.31,16.23-3.54,24.12c-0.95,3.38-2.15,6.63-4.09,9.6
		c-3.14,4.82-7.34,7.83-13.28,7.06c-6.13-0.8-9.12-4.81-10.01-10.76C838.38,422.85,837.81,420.94,838.08,418.92z"/>
	<path class="st24" d="M747.07,405.93c2.32,5.74,3.82,11.74,5.6,17.65c2.96,9.85,12.17,14.01,20.26,18.69
		c19.48,11.27,44.49,3.13,53.85-21.05c1.18-3.05,2.11-6.2,3.16-9.3c-0.38,5.63-0.08,11.41-1.3,16.85
		c-1.85,8.25-8.21,13.83-15.44,16.67c-17.29,6.8-35.07,8.38-51.79-1.82c-12.67-7.73-17.68-19.41-14.66-34.21
		C746.98,408.27,746.97,407.09,747.07,405.93z"/>
	<path class="st25" d="M785.06,310.93c-4.46-0.26-8.92-0.52-13.18-0.77c-0.65-1.11-0.08-1.57,0.47-1.83
		c8.52-4.04,17.61-5.76,26.93-6.51c1.51-0.12,2.49,0.47,3.09,1.91c4.84,11.66,9.78,23.27,14.48,34.98c0.69,1.71,2.15,4.11,0.67,5.63
		c-1.61,1.65-3.59-0.6-5.43-0.98c-1.1-0.22-2.12-0.85-3.18-1.29c-0.94-11.51-6.83-21.28-11.2-31.57c-0.99-2.34-3.11-2.25-5.1-1.46
		C790.17,310.01,787.65,310.56,785.06,310.93z"/>
	<path class="st25" d="M636.86,802.01c13.97-1.01,27.87,1.24,41.82,0.8c8.12-0.26,16.24-0.64,24.36-0.97
		c2.22,6.41,1.91,6.99-4.48,6.83c-18.38-0.45-36.75-1.08-55.13-1.4C639.5,807.2,637.72,805.42,636.86,802.01z"/>
	<path class="st24" d="M731.04,546.91c2.72,0.37,4.06-1.29,4.62-3.53c4.61-18.41,10.23-36.57,13.41-55.33
		c1.33-7.82,2.64-15.68,5.25-23.17c1.81-5.2,1.89-10.37,1.58-15.68c3.58,1.52,5.41,3.72,4.07,7.98
		c-8.68,27.59-12.47,56.34-19.88,84.24c-0.21,0.8-0.38,1.62-0.65,2.4C736.98,550.97,738.77,550.47,731.04,546.91z"/>
	<path class="st27" d="M785.06,310.93c11.25-5.88,11.18-5.85,16.5,4.93c3.15,6.38,5.58,13.02,7.8,19.76
		c0.72,2.18,1.53,4.44-0.45,6.46c-6.68-0.98-9.91-5.22-11.41-11.48c-1.08-4.52-2.76-8.88-4.8-13.09
		C791.08,314.16,788.76,311.78,785.06,310.93z"/>
	<path class="st23" d="M599.15,464.95c3.86,8.51,5.67,17.43,5.2,26.78c-6.82-2.97-13.65-5.93-20.46-8.91
		c-2.71-1.18-3.25-2.11-0.37-4.27C589.03,474.4,594.46,470.08,599.15,464.95z"/>
	<path class="st28" d="M606.21,801.76c6.57-0.34,13.2,1.08,19.71-0.76c1.67,1.37,2.93,3.04,4.25,5.65c-7.03,0-13.66,0.16-20.28-0.08
		C607.25,806.47,607.44,803.38,606.21,801.76z"/>
	<path class="st29" d="M825.25,383c6.2,0,11.58,0,16.97,0c-0.02,0.33,0.09,0.73-0.07,0.93C834.54,393.74,834.53,393.74,825.25,383z"
		/>
	<path class="st30" d="M581.09,800.84c3.19,0.26,6.44-0.42,9.58,0.68c1.31,0.46,2.2,0,2.32-1.51c2.39,1.19,4.08,3.11,5.79,5.24
		C589.14,807.53,584.87,806.43,581.09,800.84z"/>
	<path class="st31" d="M504.07,622.78c0.09-5.9,2.22-10.96,6.42-15.09c1.82-1.79,4.03-2.66,6.12-0.55c2.09,2.12,1.25,4.12-0.76,5.95
		c-2.99,2.72-4.28,6.22-4.16,10.23c0.09,2.94,0.12,6.26-3.78,6.19C503.66,629.43,504.1,625.77,504.07,622.78z"/>
	<path class="st31" d="M478.13,632.39c-0.21,4.26,0.22,7.34,1.54,10.29c1.19,2.66,1.65,5.44-1.7,6.67
		c-3.56,1.31-4.44-1.67-5.46-4.17c-1.85-4.56-2.37-9.3-1.92-14.15c0.26-2.72,0.77-5.65,4.49-5.26c3.44,0.37,3.34,3.07,3.06,5.69
		C478.07,632.12,478.13,632.79,478.13,632.39z"/>
	<path class="st32" d="M486.81,627.21c0.1-3.23,0.56-6.36,1.73-9.31c0.79-2.01,2.32-3.4,4.68-2.57c2.14,0.75,3.22,2.39,2.48,4.7
		c-1.41,4.39-1.44,8.8-0.53,13.28c0.5,2.44-0.19,4.43-2.88,4.87c-2.61,0.43-4.05-1.16-4.49-3.59
		C487.38,632.14,487.14,629.67,486.81,627.21z"/>
	<path class="st33" d="M727.96,357.38c0.01-7.46,5.11-12.54,12.54-12.5c7.45,0.04,12.66,5.47,12.58,13.1
		c-0.07,6.74-5.63,12.03-12.64,12.03C733.14,370.01,727.96,364.75,727.96,357.38z"/>
	<path class="st34" d="M740.73,352.13c3.18,0.63,5.23,2.44,4.93,5.74c-0.27,2.95-2.26,4.89-5.34,4.72
		c-3.01-0.17-5.01-2.16-4.97-5.15C735.39,354.24,737.46,352.4,740.73,352.13z"/>
</g>
</svg>
